<svg height="600" viewBox="0 0 900 600" width="900" xmlns="http://www.w3.org/2000/svg"><path d="m0 0h900v600h-900" fill="#f00"/><g fill="#ff0"><path d="m0 0v109.227s164.022-109.227 164.022-109.227z"/><path d="m0 218.675v109.514s492.575-328.189 492.575-328.189h-164.145s-328.43 219.294-328.43 218.675z"/><path d="m0 437.471v109.521s820.228-546.992 820.228-546.992h-163.916s-656.312 437.471-656.312 437.471z"/><path d="m84.467 600s163.855.035 163.855.035 651.678-434.426 651.678-434.426v-109.58s-816.261 543.971-815.533 543.971z"/><path d="m412.397 600h164.109s323.494-215.531 323.494-215.531v-109.681s-488.331 325.212-487.603 325.212z"/><path d="m740.789 600h159.211v-106.512s-159.939 106.512-159.211 106.512z"/></g></svg>